<svg xmlns="http://www.w3.org/2000/svg" viewBox="0 0 61.8 61.8" width="24" height="24">
  <path fill="#0A0E2A" d="M30.9,0C13.8,0,0,13.8,0,30.9c0,17.1,13.8,30.9,30.9,30.9c17.1,0,30.9-13.8,30.9-30.9C61.8,13.8,47.9,0,30.9,0z"/>
  <path fill="#fff" d="M14.4,45.3L20,16.4h2.3l-5.6,28.9H14.4z"/>
  <path fill="#fff" d="M19.6,45.3l5.6-28.9h2.3L22,45.3H19.6z"/>
  <path fill="#fff" d="M37.1,36.3h-5.6l-1.7,9h-4.9l5.6-28.9H38c7.3,0,10.6,4.3,10.6,9.2C48.6,32.5,43.3,36.3,37.1,36.3z"/>
  <path fill="#fff" d="M38.2,20.9h-3.7l-2.2,11h4.3c3.7,0,6.9-2.1,6.9-6.1C43.6,22.5,41.2,20.9,38.2,20.9z"/>
</svg>
